<?xml version="1.0" encoding="UTF-8" standalone="no"?>
<!DOCTYPE svg PUBLIC "-//W3C//DTD SVG 1.1//EN" "http://www.w3.org/Graphics/SVG/1.1/DTD/svg11.dtd">
<svg width="100%" height="100%" viewBox="0 0 256 256" version="1.1" xmlns="http://www.w3.org/2000/svg" xmlns:xlink="http://www.w3.org/1999/xlink" xml:space="preserve" xmlns:serif="http://www.serif.com/" style="fill-rule:evenodd;clip-rule:evenodd;stroke-linejoin:round;stroke-miterlimit:2;">
    <rect x="0" y="0" width="256" height="256"/>
    <g transform="matrix(1,0,0,1,32.7673,86.536)">
        <g transform="matrix(72,0,0,72,0,0)">
            <path d="M0.283,0.076L0.283,-0.001C0.261,-0.001 0.239,-0.002 0.215,-0.004C0.192,-0.007 0.17,-0.01 0.149,-0.015C0.129,-0.02 0.105,-0.028 0.079,-0.04L0.079,-0.134C0.1,-0.123 0.121,-0.113 0.142,-0.105C0.163,-0.098 0.184,-0.091 0.207,-0.087C0.23,-0.082 0.256,-0.079 0.283,-0.077L0.283,-0.349L0.231,-0.377C0.132,-0.431 0.083,-0.495 0.083,-0.57C0.083,-0.61 0.099,-0.649 0.132,-0.687C0.165,-0.725 0.215,-0.747 0.283,-0.752L0.283,-0.833L0.352,-0.833L0.352,-0.752C0.39,-0.752 0.435,-0.746 0.488,-0.732L0.488,-0.648L0.471,-0.653C0.422,-0.667 0.382,-0.675 0.352,-0.678L0.352,-0.412L0.406,-0.381C0.458,-0.351 0.493,-0.322 0.512,-0.293C0.531,-0.265 0.541,-0.234 0.541,-0.202C0.541,-0.173 0.533,-0.145 0.519,-0.118C0.504,-0.091 0.484,-0.067 0.457,-0.048C0.43,-0.028 0.395,-0.015 0.352,-0.007L0.352,0.076L0.283,0.076ZM0.283,-0.453L0.283,-0.679C0.25,-0.671 0.225,-0.659 0.207,-0.642C0.19,-0.624 0.181,-0.604 0.181,-0.581C0.181,-0.559 0.188,-0.538 0.203,-0.518C0.219,-0.498 0.245,-0.477 0.283,-0.453ZM0.352,-0.309L0.352,-0.084C0.387,-0.097 0.411,-0.112 0.424,-0.131C0.436,-0.149 0.442,-0.17 0.442,-0.192C0.442,-0.215 0.436,-0.233 0.424,-0.249C0.411,-0.265 0.387,-0.285 0.352,-0.309Z" style="fill:white;fill-rule:nonzero;"/>
        </g>
        <g transform="matrix(72,0,0,72,43.207,0)">
            <rect x="0.035" y="0" width="0.53" height="0.076" style="fill:white;fill-rule:nonzero;"/>
        </g>
    </g>
</svg>